<svg width="29" height="29" viewBox="0 0 29 29" fill="none" xmlns="http://www.w3.org/2000/svg">
<path d="M14.0177 2.3363C7.56954 2.3363 2.33627 7.56957 2.33627 14.0177C2.33627 20.4658 7.56954 25.6991 14.0177 25.6991C20.4658 25.6991 25.6991 20.4658 25.6991 14.0177C25.6991 7.56957 20.4658 2.3363 14.0177 2.3363ZM19.4378 10.2797C19.2626 12.1253 18.5033 16.611 18.1178 18.6786C17.9543 19.5547 17.6272 19.8467 17.3235 19.8818C16.646 19.9402 16.132 19.4379 15.4778 19.0057C14.4499 18.3281 13.8658 17.9076 12.8729 17.2535C11.7164 16.4942 12.464 16.0736 13.1299 15.3961C13.3051 15.2209 16.2955 12.4991 16.354 12.2538C16.3621 12.2167 16.361 12.1781 16.3508 12.1414C16.3406 12.1048 16.3217 12.0712 16.2955 12.0435C16.2255 11.9851 16.132 12.0085 16.0502 12.0202C15.9451 12.0435 14.3097 13.1299 11.1207 15.2793C10.6534 15.5947 10.2329 15.7582 9.85909 15.7465C9.43856 15.7349 8.64423 15.5129 8.04848 15.3143C7.31255 15.0807 6.74016 14.9522 6.78689 14.5434C6.81025 14.3331 7.10228 14.1228 7.65131 13.9009C11.0623 12.4174 13.3285 11.4361 14.4616 10.9689C17.709 9.61382 18.3748 9.38019 18.8187 9.38019C18.9122 9.38019 19.1341 9.40355 19.2743 9.52036C19.3911 9.61381 19.4262 9.74231 19.4378 9.83576C19.4262 9.90585 19.4495 10.1161 19.4378 10.2797Z" fill="black"/>
</svg>
