<svg width="29" height="29" viewBox="0 0 29 29" fill="none" xmlns="http://www.w3.org/2000/svg">
<path d="M22.5101 6.22617C20.9564 5.50193 19.2743 4.97626 17.5221 4.67255C17.4913 4.67299 17.4619 4.68558 17.4403 4.70759C17.2301 5.09308 16.9848 5.59538 16.8212 5.98086C14.9627 5.70069 13.0727 5.70069 11.2142 5.98086C11.0506 5.5837 10.8053 5.09308 10.5834 4.70759C10.5717 4.68423 10.5366 4.67255 10.5016 4.67255C8.74938 4.97626 7.07894 5.50193 5.51363 6.22617C5.50195 6.22617 5.49027 6.23785 5.47859 6.24954C2.30125 11.0039 1.42514 15.6297 1.85735 20.2088C1.85735 20.2322 1.86903 20.2555 1.8924 20.2672C3.99505 21.8092 6.01593 22.7437 8.01345 23.3628C8.04849 23.3745 8.08354 23.3628 8.09522 23.3394C8.56248 22.6969 8.98301 22.0194 9.34513 21.3069C9.36849 21.2601 9.34513 21.2134 9.2984 21.2017C8.63256 20.9447 8.00177 20.641 7.38265 20.2906C7.33593 20.2672 7.33593 20.1971 7.37097 20.1621C7.49947 20.0686 7.62796 19.9635 7.75646 19.87C7.77982 19.8467 7.81487 19.8467 7.83823 19.8584C11.8566 21.6923 16.1904 21.6923 20.1621 19.8584C20.1855 19.8467 20.2205 19.8467 20.2439 19.87C20.3724 19.9752 20.5009 20.0686 20.6294 20.1738C20.6761 20.2088 20.6761 20.2789 20.6177 20.3023C20.0102 20.6644 19.3678 20.9564 18.7019 21.2134C18.6552 21.2251 18.6435 21.2835 18.6552 21.3185C19.029 22.0311 19.4495 22.7086 19.9051 23.3511C19.9402 23.3628 19.9752 23.3745 20.0102 23.3628C22.0194 22.7437 24.0403 21.8092 26.143 20.2672C26.1663 20.2555 26.178 20.2322 26.178 20.2088C26.692 14.9171 25.3253 10.3263 22.5568 6.24954C22.5451 6.23785 22.5334 6.22617 22.5101 6.22617ZM9.95256 17.417C8.74938 17.417 7.74478 16.3072 7.74478 14.9405C7.74478 13.5738 8.72602 12.464 9.95256 12.464C11.1908 12.464 12.172 13.5855 12.1603 14.9405C12.1603 16.3072 11.1791 17.417 9.95256 17.417ZM18.0945 17.417C16.8913 17.417 15.8867 16.3072 15.8867 14.9405C15.8867 13.5738 16.868 12.464 18.0945 12.464C19.3327 12.464 20.314 13.5855 20.3023 14.9405C20.3023 16.3072 19.3327 17.417 18.0945 17.417Z" fill="black"/>
</svg>
