<svg width="29" height="29" viewBox="0 0 29 29" fill="none" xmlns="http://www.w3.org/2000/svg">
<path d="M14.0177 2.3363C12.4836 2.3363 10.9646 2.63845 9.54739 3.2255C8.13014 3.81254 6.84239 4.67299 5.75768 5.75771C3.56699 7.94839 2.33627 10.9196 2.33627 14.0177C2.33627 19.1809 5.68883 23.5614 10.3264 25.115C10.9104 25.2085 11.0973 24.8464 11.0973 24.531V22.5568C7.86158 23.2577 7.17237 20.9915 7.17237 20.9915C6.63503 19.6365 5.87574 19.2743 5.87574 19.2743C4.81273 18.5501 5.95751 18.5734 5.95751 18.5734C7.12565 18.6552 7.74476 19.7766 7.74476 19.7766C8.76104 21.5522 10.4782 21.0265 11.144 20.7462C11.2492 19.9869 11.5529 19.4729 11.88 19.1809C9.28671 18.8888 6.56494 17.8842 6.56494 13.4336C6.56494 12.137 7.00883 11.0974 7.76812 10.268C7.65131 9.97594 7.24246 8.76107 7.88494 7.18408C7.88494 7.18408 8.86618 6.86869 11.0973 8.37559C12.0202 8.1186 13.0248 7.9901 14.0177 7.9901C15.0106 7.9901 16.0152 8.1186 16.938 8.37559C19.1692 6.86869 20.1504 7.18408 20.1504 7.18408C20.7929 8.76107 20.384 9.97594 20.2672 10.268C21.0265 11.0974 21.4704 12.137 21.4704 13.4336C21.4704 17.8959 18.737 18.8772 16.132 19.1692C16.5525 19.5313 16.938 20.2439 16.938 21.3303V24.531C16.938 24.8464 17.1249 25.2202 17.7207 25.115C22.3582 23.5497 25.6991 19.1809 25.6991 14.0177C25.6991 12.4837 25.3969 10.9647 24.8099 9.54742C24.2228 8.13017 23.3624 6.84242 22.2777 5.75771C21.193 4.67299 19.9052 3.81254 18.488 3.2255C17.0707 2.63845 15.5517 2.3363 14.0177 2.3363Z" fill="black"/>
</svg>
